<?xml version="1.0" encoding="utf-8"?>
<!-- Generator: Adobe Illustrator 18.1.1, SVG Export Plug-In . SVG Version: 6.00 Build 0)  -->
<svg version="1.1" id="Layer_1" xmlns="http://www.w3.org/2000/svg" xmlns:xlink="http://www.w3.org/1999/xlink" x="0px" y="0px"
	 viewBox="0 0 595.3 841.9" enable-background="new 0 0 595.3 841.9" xml:space="preserve">
<path fill="#CC1417" d="M555.7,379.2L359.6,796.3c-11.3,23.7-36.1,38.3-62,38.3s-50.7-14.5-61.4-38.3L39.5,379.2
	c-14-29.7-17.8-63.6-17.8-96.5C21.7,130.3,145.1,6.9,297.6,6.9s275.9,123.4,275.9,275.9C573.5,315.6,569.7,349.6,555.7,379.2z
	 M297.6,144.8c-76,0-137.9,62-137.9,137.9s62,137.9,137.9,137.9s137.9-62,137.9-137.9S373.6,144.8,297.6,144.8z"/>
</svg>
